<svg xmlns="http://www.w3.org/2000/svg" data-name="Layer 1" viewBox="0 0 512 512"><path fill="#f1b0a2" d="M72.62954,348.952l31.36669,55.51469v7.96639h64.08414L168.08,457.34961l-23.60166,38.31118a27,27,0,0,1-47.40572-2.63909L34.3,359.99961Z"/><path fill="#fdc857" d="M449.38985,505V361.71078a66,66,0,0,0-42.9494-61.84391L338.74952,274.637a33,33,0,0,1-21.4747-30.922V220.74042H236.11126V243.715a33,33,0,0,1-21.4747,30.922l-67.69093,25.22991a66,66,0,0,0-42.9494,61.84391v50.72231h64.11029V512H442.38985A7,7,0,0,0,449.38985,505Z"/><path fill="#ffbc5b" d="M449.38985,505V361.71078a66,66,0,0,0-42.9494-61.84391L338.74952,274.637a33,33,0,0,1-21.4747-30.922V220.74042H236.11126V243.715a33,33,0,0,1-21.4747,30.922l-67.69093,25.22991a66,66,0,0,0-42.9494,61.84391v50.72231h64.11029V505a7,7,0,0,0,7,7H442.38985A7,7,0,0,0,449.38985,505Z"/><path fill="#e88f37" d="M236.11132,222.97932V243.715a32.96321,32.96321,0,0,1-7.62793,21.08252l30.77246-20.29151L243.5205,220.74043h-4.01367Z"/><path fill="#f1b0a2" d="M338.74952 274.637a33 33 0 0 1-21.4747-30.922V220.74042H236.11126V243.715a33 33 0 0 1-21.4747 30.922l62.05648 21zM442.38985 512h-53.074V426.43309h60.074V505A7 7 0 0 1 442.38985 512z"/><path fill="#ff7b4f" d="M354.486 512V287.7824a10 10 0 0 1 12.30948-9.72966l38.98092 9.2527a10 10 0 0 1 7.69052 9.72966V512zM276.693 292.50519l.00024 8.41739a359.4116 359.4116 0 0 1-37.87719-13.42537c-9.09684-3.80951-17.53-7.7814-25.29-11.76466a7.01278 7.01278 0 0 1-3.81054-6.45629c.06643-2.22077.19479-5.01109.19479-7.94668a5.99838 5.99838 0 0 1 8.19116-5.58394c11.48486 4.51135 32.47632 12.82311 45.967 18.16957A19.98978 19.98978 0 0 1 276.693 292.50519z"/><path fill="#dc8768" d="M13.26732,366.50563a15.3568,15.3568,0,0,1,5.64026-18.91777L455.51283,59.6899c4.18887-2.76215,9.32-2.36928,11.4607.8775l9.15359,13.88318c2.1407,3.24678.48032,8.118-3.70855,10.88013L35.81332,373.22866a15.3552,15.3552,0,0,1-22.546-6.723Z"/><path fill="#dc8768" d="M407.1405,105.55809l19.85914,22.08779,40.7112,90.44533a5.34758,5.34758,0,0,0,7.82019,2.26963h0a5.34809,5.34809,0,0,0,2.33851-5.2986L460.57731,105.50473,446.255,79.766Z"/><path fill="#dc8768" d="M411.70023,112.4738,399.2235,85.518,332.13568,12.46549a5.34818,5.34818,0,0,1,.99486-8.08229h0a5.34741,5.34741,0,0,1,5.7911-.06207l93.87952,59.05577,18.01354,23.30479Z"/><rect width="51.106" height="60.452" x="403.247" y="65.624" fill="#ab5249" rx="12.642" transform="rotate(56.602 428.8 95.85)"/><path fill="#dc8768" d="M252.256,230.50612,35.81332,373.22866a15.3552,15.3552,0,0,1-22.546-6.723v0a15.3568,15.3568,0,0,1,5.64026-18.91777L235.30076,204.898Z"/><path fill="#ff7b4f" d="M276.69322,292.498l.00006,8.42457a237.51148,237.51148,0,0,0,63.482-25.14116,6.97664,6.97664,0,0,0,3.50263-6.25074c-.06373-2.26015-.20218-5.15228-.20218-8.2011a5.99838,5.99838,0,0,0-8.19117-5.58394c-11.4854,4.51153-32.47779,12.82376-45.96863,18.17021A19.98615,19.98615,0,0,0,276.69322,292.498Z"/><path fill="#ab5249" d="M66.72754,340.60449a30.04751,30.04751,0,0,0,12.46728-32.77L18.90771,347.58783a15.349,15.349,0,0,0-6.0122,17.94055,30.17345,30.17345,0,0,0,6.09375.63129h.001a29.89,29.89,0,0,0,16.499-4.95655Z"/><path fill="#f1b0a2" d="M40.76144,294.47026h2.044a6,6,0,0,1,6,6V357.889a6,6,0,0,1-6,6h-2.044a16,16,0,0,1-16-16V310.47026a16,16,0,0,1,16-16Z" transform="rotate(-123.401 36.783 329.18)"/><path fill="#ab5249" d="M373.97634,132.50382q-4.07373-6.96342-7.91992-13.82624l-47.42187,31.27015q6.03,10.67284,12.63037,21.571c1.00244,1.651,2.0083,3.27368,3.01318,4.90192l47.29981-31.18952C379.03933,141.05063,376.50369,136.82388,373.97634,132.50382Z"/><path fill="#ff7b4f" d="M404.16709,219.45437l-28.81893,16.63855a11.40566,11.40566,0,0,1-14.9366-3.20214c-11.98934-16.5243-24.16158-34.635-36.14646-54.372a797.64382,797.64382,0,0,1-50.784-98.46928q24.25377-14.0028,48.50731-28.0056a907.112,907.112,0,0,0,44.98784,87.45991c13.56264,23.18313,27.33074,44.3545,40.81884,63.54558A11.38223,11.38223,0,0,1,404.16709,219.45437Z"/><path fill="#dd9287" d="M206.79237 185.09319h12.90435l-7-40.01316h-9.893a9.2816 9.2816 0 0 0-9.12517 10.97841l3.98861 21.45A9.2816 9.2816 0 0 0 206.79237 185.09319zM347.23784 185.09319H334.33348l7-40.01316h9.893a9.28159 9.28159 0 0 1 9.12517 10.97841l-3.98861 21.45A9.28158 9.28158 0 0 1 347.23784 185.09319zM282.97607 272.19971h2.07837a41.94509 41.94509 0 0 0 26.261-9.238l.00024-.00006a99.0617 99.0617 0 0 0 8.18726-7.36084 32.92873 32.92873 0 0 1-2.228-11.8858V220.74042H236.11133V240.3576a98.93876 98.93876 0 0 0 20.60351 22.604v.00006A41.94476 41.94476 0 0 0 282.97607 272.19971z"/><path fill="#f1b0a2" d="M304.31563,250.35244l-.00026.00006a41.94485,41.94485,0,0,1-26.26094,9.23805H275.976a41.945,41.945,0,0,1-26.26121-9.23805v-.00006a98.99915,98.99915,0,0,1-37.018-77.1956V119.20818a28.42141,28.42141,0,0,1,28.4214-28.4214h71.794a28.42141,28.42141,0,0,1,28.4214,28.4214v53.94866A98.99915,98.99915,0,0,1,304.31563,250.35244Z"/><path fill="#dd9287" d="M338.55224,106.98542l.02051-.00677c-.09912-.20758-.21436-.40564-.31836-.61041-.13623-.269-.27246-.53748-.41748-.80139-.20752-.37861-.42871-.74817-.65283-1.11609-.14258-.23444-.28077-.47168-.43018-.70166-.27441-.42237-.56592-.83179-.86182-1.23822-.11767-.16144-.22705-.32874-.34765-.48755q-.64673-.85071-1.353-1.65119c-.02832-.03186-.05957-.061-.08789-.09283q-.66578-.74506-1.38281-1.44135c-.13526-.13141-.27783-.25433-.41553-.383-.38232-.35724-.77-.70777-1.17139-1.0437-.16894-.14154-.34375-.27619-.51611-.41382-.38818-.30976-.78174-.61151-1.186-.901-.17071-.12223-.34354-.24117-.51731-.3595q-.66168-.45054-1.3468-.86526c-.16943-.10255-.33867-.20465-.5104-.30344-.46-.26483-.92968-.51386-1.40576-.75324-.16406-.08258-.32617-.16888-.49219-.24841-.5542-.26526-1.11914-.51025-1.69238-.73993-.09473-.0379-.18652-.081-.28174-.118a28.33012,28.33012,0,0,0-10.27295-1.92194H241.11816a28.42139,28.42139,0,0,0-28.42139,28.42139v19.74048a17.96342,17.96342,0,0,0,17.87647,3.83533l70.21976-23.28a8.64771,8.64771,0,0,1,8.4959,1.77119l18.64518,16.726a11.28125,11.28125,0,0,0,13.39941,1.32507v-20.118A28.25977,28.25977,0,0,0,338.55224,106.98542Z"/><path fill="#343c4a" d="M248.43284,197.44011a3.58036,3.58036,0,0,1,3.01583-3.54271,163.719,163.719,0,0,1,51.4388.00035,3.57954,3.57954,0,0,1,3.01344,3.542V208.149a3.59005,3.59005,0,0,1-4.10914,3.5457,175.06638,175.06638,0,0,0-49.25249.00038,3.58828,3.58828,0,0,1-4.10644-3.54555Z"/><path fill="#eb9c8d" d="M287.62807,182.52109v5.51866a10.613,10.613,0,0,1-10.613,10.613h0a10.613,10.613,0,0,1-10.613-10.613v-5.51866a3,3,0,0,1,3-3h15.226A3,3,0,0,1,287.62807,182.52109Z"/><path fill="#f24f2a" d="M327.93422,124.00111l-25.44869-22.829,6.6454-23.18751h37.80253V115.521A11.39211,11.39211,0,0,1,327.93422,124.00111Z"/><path fill="#ff7b4f" d="M347.17081,90.12809,230.5733,128.784a18.0375,18.0375,0,0,1-23.71371-17.1211V70.69046A39.17279,39.17279,0,0,1,255.0592,32.5719l79.5505,18.83829a16.32237,16.32237,0,0,1,12.56111,15.8831Z"/><path fill="#f24f2a" d="M302.50161,43.80668a247.892,247.892,0,0,1-54.79508,28.89941,247.15112,247.15112,0,0,1-40.847,11.46683v22.32755a237.17363,237.17363,0,0,0,57.44934-15.769,237.837,237.837,0,0,0,65.1493-40.54127Q315.97979,46.99846,302.50161,43.80668Z"/><path fill="#eb9c8d" d="M103.99623,404.4667v7.96639h0a7.9757,7.9757,0,0,1-7.94413-8.68459l1.02817-11.52212Z"/><path fill="#24242b" d="M481.32715,214.51465,464.15137,105.67914A16.24192,16.24192,0,0,0,466.35864,93.52l7.98706-5.267c5.793-3.81592,7.9043-10.87109,4.70508-15.73047L469.89355,58.645a9.85993,9.85993,0,0,0-7.61816-4.25879,14.03759,14.03759,0,0,0-8.69238,2.38184l-8.06372,5.31836a16.20516,16.20516,0,0,0-12.24683-2.54212L340.78906,1.36084a8.9991,8.9991,0,0,0-9.59082.10059,8.85551,8.85551,0,0,0-1.63672,13.376l64.52784,70.27381a16.23845,16.23845,0,0,0-2.90015,12.79693l-31.8794,21.01892q-4.44543-8.03722-8.7583-16.20031l.11939-12.56562-.00147-.0155.00147-.0177V67.29346A19.75229,19.75229,0,0,0,335.416,48.00439L255.86621,29.166a42.67276,42.67276,0,0,0-52.50683,41.52441v40.97266A21.275,21.275,0,0,0,209.2002,126.419v15.16113h-6.39649a12.7822,12.7822,0,0,0-12.56641,15.11816l3.98829,21.44971a12.78547,12.78547,0,0,0,12.5664,10.44531h3.59888a103.44069,103.44069,0,0,0,6.75586,24.088L69.00049,310.36768a19.41264,19.41264,0,0,0-2.5083-5.54248l-1.125-1.707A9.5009,9.5009,0,0,0,52.20605,300.417L4.27051,332.02539A9.51091,9.51091,0,0,0,1.56934,345.186v.001l1.126,1.70557a19.387,19.387,0,0,0,7.165,6.50342,18.85145,18.85145,0,0,0,27.876,22.75586l.24072-.1587L93.90527,494.51367a30.08114,30.08114,0,0,0,25.88184,17.43555q.90234.05053,1.79492.05029A30.0517,30.0517,0,0,0,147.46,497.49609l17.12012-27.79168V508.0498a3.5,3.5,0,0,0,7,0V396.36768a3.5,3.5,0,0,0-7,0v12.56543H107.5V361.71a62.2646,62.2646,0,0,1,16.8269-42.65655l24.47046-16.13587L212.56494,279.148c8.144,4.15942,16.49072,8.05652,24.8999,11.57758a364.32886,364.32886,0,0,0,35.72852,12.79986V508.5a3.5,3.5,0,0,0,7,0V303.65973a240.12174,240.12174,0,0,0,60.938-24.39813l10.64184,3.96673a13.52765,13.52765,0,0,0-.78686,4.5539V508.5a3.5,3.5,0,0,0,7,0V287.78223a6.5006,6.5006,0,0,1,8.001-6.32422l38.98047,9.25293a6.4775,6.4775,0,0,1,4.999,6.32422V508.5a3.5,3.5,0,0,0,7,0V429.93018h28.92285V508.5a3.5,3.5,0,0,0,7,0V361.71A69.18054,69.18054,0,0,0,416.9668,300.8595v-3.82434A13.45268,13.45268,0,0,0,406.585,283.90039l-38.98047-9.25293a13.43059,13.43059,0,0,0-11.48926,2.54395c-.05175.04077-.0957.08831-.14648.12976l-8.92334-3.32617a37.03867,37.03867,0,0,0,.06689-6.5365c-.06445-1.85645-.13671-3.96045-.13671-6.12891a9.49872,9.49872,0,0,0-12.97071-8.8418c-2.73193,1.07312-6.17724,2.43042-10.27856,4.04914a29.3653,29.3653,0,0,1-2.95679-12.827v-4.5603a101.76526,101.76526,0,0,0,18.02637-31.27027c6.07471,9.14454,12.36548,18.22571,18.7832,27.06934a14.87489,14.87489,0,0,0,19.52051,4.17236L405.919,222.48193a14.885,14.885,0,0,0,4.74414-21.44482c-11.28931-16.05847-22.13575-32.63745-32.37622-49.44519l33.57446-22.14227a16.08094,16.08094,0,0,0,6.12012,2.67193,16.29115,16.29115,0,0,0,3.27832.335,15.9452,15.9452,0,0,0,3.84936-.48l39.40942,87.54938a8.85171,8.85171,0,0,0,16.92188-3.626A9.639,9.639,0,0,0,481.32715,214.51465ZM416.9668,308.99438A62.19171,62.19171,0,0,1,445.88965,361.71v61.22022H416.9668ZM457.43457,62.61279a7.09706,7.09706,0,0,1,4.30762-1.24658,3.01331,3.01331,0,0,1,2.30664,1.13135L473.20605,76.375c.92286,1.40039.03614,4.22266-2.71289,6.0332l-7.08007,4.66919-13.05371-19.798ZM334.71875,10.104a1.85447,1.85447,0,0,1,.34473-2.80712,1.87775,1.87775,0,0,1,1.99218-.01465l88.67872,55.78961L399.33789,80.47742Zm10.11133,163.05616V148.58008h6.39648a5.78083,5.78083,0,0,1,5.6836,6.83887l-3.98828,21.4497a5.78234,5.78234,0,0,1-5.6836,4.72461h-2.75317Q344.82531,177.40784,344.83008,173.16016ZM210.35938,70.69043a35.69963,35.69963,0,0,1,35.60156-35.686,35.9693,35.9693,0,0,1,8.292.97315l39.67236,9.3949a244.36967,244.36967,0,0,1-47.45166,24.05774,244.3142,244.3142,0,0,1-36.11425,10.46814Zm0,16.34778a251.36746,251.36746,0,0,0,38.5791-11.05628,251.59477,251.59477,0,0,0,54.26733-28.41174l18.69605,4.42743a233.57491,233.57491,0,0,1-58.937,35.50189,233.77055,233.77055,0,0,1-52.60546,14.92615Zm-3.56739,94.555a5.78233,5.78233,0,0,1-5.68359-4.72461l-3.98828-21.45019a5.78069,5.78069,0,0,1,5.68359-6.83838h6.39649v24.58008q0,4.21793.355,8.4331Zm3.56739-69.93017v-2.152a240.795,240.795,0,0,0,55.293-15.54767A240.75128,240.75128,0,0,0,330.38281,54.006l3.41992.80988a12.77662,12.77662,0,0,1,9.86817,12.47754V87.60107L229.47168,125.46191a14.53755,14.53755,0,0,1-19.1123-13.79882ZM343.62451,94.99115l-.1665,17.53229a54.975,54.975,0,0,1-13.24732-13.08515ZM8.53906,343.03809l-1.126-1.70655a2.50226,2.50226,0,0,1,.71093-3.4624l47.93555-31.6084a2.50124,2.50124,0,0,1,3.46387.71045l1.125,1.707a12.51454,12.51454,0,0,1-3.55469,17.31641L25.85547,346.59375a12.49872,12.49872,0,0,1-17.31641-3.55566Zm156.041,72.895v40.426l-23.0791,37.4646a23.50469,23.50469,0,0,1-41.26563-2.29736L43.87988,372.10071,71.42627,353.9364,100.5,405.39343v7.00092c0,.01324-.00391.02551-.00391.03876s.00391.02551.00391.03875V425a3.5,3.5,0,0,0,7,0v-9.06689ZM100.5,361.71v29.45483L77.28345,350.07422,108.36768,329.577A69.27892,69.27892,0,0,0,100.5,361.71Zm105.84082-87.713-31.48071,11.73444L206.35278,264.965c-.02417.86419-.052,1.70465-.07934,2.49347A36.99433,36.99433,0,0,0,206.34082,273.997Zm4.21875-20.517a9.48665,9.48665,0,0,0-1.58105,1.36871L33.88379,370.30713a11.83735,11.83735,0,0,1-17.28906-14.81128,19.60448,19.60448,0,0,0,2.41992.16821A19.36461,19.36461,0,0,0,29.709,352.4375l31.23829-20.59912a19.43345,19.43345,0,0,0,8.51953-13.39362l150.627-99.322a102.96234,102.96234,0,0,0,12.5166,19.20215v.94086L212.7041,252.39209A9.486,9.486,0,0,0,210.55957,253.48Zm21.7583-5.63647a29.38047,29.38047,0,0,1-2.65893,8.69293c-2.33643-.92206-4.5542-1.79651-6.58619-2.59662Zm40.87549,48.37524c-11.17969-3.43359-22.26856-7.44531-33.02539-11.9502-9.12988-3.82324-18.20117-8.07714-26.99121-12.65722-.00488-1.06983.04785-2.59717.09277-3.91162.06543-1.9126.14063-4.08106.14063-6.37012a2.41742,2.41742,0,0,1,.3269-1.23383l1.8999-1.25286a2.43964,2.43964,0,0,1,1.18531.16052c11.78711,4.63037,33.85253,13.36865,45.957,18.16553a16.40825,16.40825,0,0,1,10.41406,15.33642Zm3.5-16.07379a23.4118,23.4118,0,0,0-11.33594-9.48383c-7.5039-2.97387-18.83447-7.46191-29.17529-11.5484a36.39553,36.39553,0,0,0,3.35181-13.182,101.24974,101.24974,0,0,0,7.98559,7.14886,45.62541,45.62541,0,0,0,28.46094,10.01025h2.06933a45.62772,45.62772,0,0,0,28.46192-10.01074c2.58032-2.07214,5.03491-4.25921,7.37671-6.53784a36.31712,36.31712,0,0,0,3.31494,12.572c-8.009,3.165-17.80737,7.04327-29.175,11.54791A23.40712,23.40712,0,0,0,276.69336,280.145Zm59.87012-21.14154a2.48545,2.48545,0,0,1,.915-.17822,2.53916,2.53916,0,0,1,1.40527.439,2.477,2.477,0,0,1,1.0918,2.06543c0,2.28906.07519,4.45752.14062,6.37012.04688,1.35791.10156,2.94287.09277,4.01611a233.95919,233.95919,0,0,1-60.01562,24.73535v-3.9458A16.40781,16.40781,0,0,1,290.60645,277.169C311.98535,268.69727,327.877,262.41553,336.56348,259.00342Zm1.2666-85.84326a95.99329,95.99329,0,0,1-3.38574,25.30236,3.49822,3.49822,0,0,0-.21778.80018,94.73514,94.73514,0,0,1-19.40381,36.0791c-.05493.05377-.10034.11566-.15161.173a96.297,96.297,0,0,1-12.54126,12.10584,38.60525,38.60525,0,0,1-24.08008,8.46923h-2.06933a38.60529,38.60529,0,0,1-24.08008-8.46923,95.50332,95.50332,0,0,1-35.70019-74.46045V131.36493a21.12445,21.12445,0,0,0,8.62792,1.85821,21.7406,21.7406,0,0,0,6.84668-1.11669L304.73633,107.884l20.85742,18.722a14.3991,14.3991,0,0,0,12.23633,3.62683Zm.92773-50.43262a7.70816,7.70816,0,0,1-8.49023-1.332l-17.87891-16.04859,10.88867-3.60992a62.39915,62.39915,0,0,0,18.79151,18.26062A7.86536,7.86536,0,0,1,338.75781,122.72754Zm66.17774,82.333a7.88594,7.88594,0,0,1-2.51563,11.3584l-28.82226,16.64062a7.89672,7.89672,0,0,1-10.3545-2.2251c-7.47827-10.305-14.79345-20.93542-21.77563-31.6148a102.41562,102.41562,0,0,0,2.20215-10.62641h3.5686A12.78549,12.78549,0,0,0,359.80469,178.148l3.98828-21.44922a12.78232,12.78232,0,0,0-12.56641-15.11865h-6.39648V127.16882a14.57477,14.57477,0,0,0,5.02734-7.49579c.01-.03063.01465-.06182.02393-.09265a14.94189,14.94189,0,0,0,.458-2.45062q2.37853,4.36486,4.79541,8.68262c.00927.0144.01391.03027.02343.04455l.0044.00519c2.90332,5.19989,5.83642,10.34973,8.79638,15.40448q3.25452,5.566,6.61377,11.10327c.01758.02814.0271.05884.04541.08667.00708.01062.01709.01764.02417.02814C381.44873,170.36334,392.94482,188.00439,404.93555,205.06055ZM374.65771,145.6q-2.35107-3.9278-4.65673-7.86859c-2.44092-4.16834-4.86036-8.40961-7.26514-12.67878l31.31006-20.64361,13.053,19.79632Zm44.731-20.33539a9.0694,9.0694,0,0,1-4.77685-2.65186l-.01075-.012a9.22046,9.22046,0,0,1-1.00634-1.259v-.00049L399.38086,99.78369a9.15725,9.15725,0,0,1-.83911-1.59857c-.01514-.04065-.0293-.081-.04614-.12128a9.155,9.155,0,0,1,3.48486-10.94421l29.36035-19.35986a9.08029,9.08029,0,0,1,5.01367-1.5127,9.231,9.231,0,0,1,1.85742.18945,9.07658,9.07658,0,0,1,4.60425,2.4701l.00073.00073a9.22265,9.22265,0,0,1,1.189,1.45251l14.21387,21.55762a9.151,9.151,0,0,1,.7561,1.418c.00635.0163.01538.03168.022.04785a9.15148,9.15148,0,0,1-3.37866,11.19824l-29.35937,19.35987A9.07749,9.07749,0,0,1,419.38867,125.26465Zm54.21778,92.17187a1.85277,1.85277,0,0,1-2.70508-.7832l-39.488-87.7254,26.55688-17.512,16.43506,104.13971a2.4259,2.4259,0,0,1,.03516.34424A1.85547,1.85547,0,0,1,473.60645,217.43652Zm-170.167-26.99316c-4.11133-.65418-8.25244-1.15619-12.35742-1.49909.01929-.30059.0459-.5993.0459-.90472V179.521a3.5,3.5,0,1,0-7,0v8.51855a7.1128,7.1128,0,1,1-14.22559,0V179.521a3.5,3.5,0,1,0-7,0v8.51855c0,.31549.02686.62421.04737.93457-4.06763.3465-8.10327.8382-12.03662,1.46729a7.03967,7.03967,0,0,0-5.9834,6.99853v10.71a7.08875,7.08875,0,0,0,7.11133,7.0835,7.24384,7.24384,0,0,0,.99316-.06836A172.85674,172.85674,0,0,1,277.333,213.4502h.18945a172.38688,172.38688,0,0,1,23.77246,1.70459,7.08351,7.08351,0,0,0,8.10547-7.00489v-10.71A7.03161,7.03161,0,0,0,303.43945,190.44336Zm-1.03906,17.70654-.11816.07471a178.12394,178.12394,0,0,0-50.22168.0083c-.01953.00342-.06348.01123-.13086-.083v-10.71l.07324-.084c4.32739-.69232,8.77637-1.19855,13.25146-1.53192a14.0906,14.0906,0,0,0,23.53663-.025c4.48974.32532,9.03515.83948,13.54882,1.55744.00391.00048.05567.083.06055.08349Zm-48.07031-57.70556a3.50006,3.50006,0,0,0,2.65625-6.47657,32.12212,32.12212,0,0,0-12.89356-2.37793,31.71673,31.71673,0,0,0-11.28125,2.37842,3.5,3.5,0,1,0,2.65821,6.47559,24.78357,24.78357,0,0,1,18.86035.00049Zm66.88769-6.47657a31.78073,31.78073,0,0,0-24.1748.00049,3.5,3.5,0,1,0,2.6582,6.47559,24.7294,24.7294,0,0,1,8.80078-1.856,25.03425,25.03425,0,0,1,10.05957,1.85645,3.50006,3.50006,0,0,0,2.65625-6.47657Zm-72.81836,19.54932v-6.84668a3.5,3.5,0,0,0-7,0v6.84668a3.5,3.5,0,0,0,7,0Zm38.04688,57.68506a25.0634,25.0634,0,0,1-10.05957,1.85644,24.72594,24.72594,0,0,1-8.80176-1.856,3.5,3.5,0,0,0-2.6582,6.47558,31.71274,31.71274,0,0,0,11.28222,2.37842q.41016.01026.81836.01025a31.66754,31.66754,0,0,0,12.0752-2.38818,3.50005,3.50005,0,0,0-2.65625-6.47656Zm22.68457-68.03174a3.50017,3.50017,0,0,0-3.5,3.5v6.84668a3.5,3.5,0,0,0,7,0v-6.84668A3.50017,3.50017,0,0,0,309.13086,153.17041Z"/></svg>